<svg id="Layer_1" data-name="Layer 1" xmlns="http://www.w3.org/2000/svg" xmlns:xlink="http://www.w3.org/1999/xlink" viewBox="0 0 80 80"><defs><linearGradient id="linear-gradient" x1="39.17" y1="57.87" x2="40.37" y2="32.36" gradientUnits="userSpaceOnUse"><stop offset="0" stop-color="#ad2923"/><stop offset="1" stop-color="#d64a37"/></linearGradient><linearGradient id="linear-gradient-2" x1="40.2" y1="40.56" x2="39.96" y2="23.23" xlink:href="#linear-gradient"/><linearGradient id="linear-gradient-3" x1="43.17" y1="69.1" x2="40.04" y2="47.2" xlink:href="#linear-gradient"/></defs><title>Social Media Icons Free Vector Pack - Scene 3</title><path d="M61.33,49a11.28,11.28,0,0,1-11.55,11.5H29.94a11.19,11.19,0,0,1-11.28-11V31.17A11.18,11.18,0,0,1,29.51,20.3l19.07-.78c6.31-.25,11.73,4.39,12,10.4Z" fill="url(#linear-gradient)"/><path d="M60.74,34.49c-3.49-2.1-8.07-2.66-13.88-.84-9,2.85-20.6.2-27.47-6.27A11.41,11.41,0,0,1,29.51,20.3l19.07-.78c6.31-.26,11.73,4.39,12,10.39Z" fill="url(#linear-gradient-2)"/><path d="M60.68,53.1a11.48,11.48,0,0,1-10.9,7.39H29.94a11.36,11.36,0,0,1-8.31-3.59c5.8-1.78,10.94-7.53,19.49-8.81C48.76,47,56,50.15,60.68,53.1Z" fill="url(#linear-gradient-3)"/><path d="M46.91,39.61l-10.72.12a.32.32,0,0,0-.32.33v4.51a.32.32,0,0,0,.32.33h6.6s-1.26,4.28-7.93,4-9.32-8.69-6-12.72,10-4,12.87-.3a.3.3,0,0,0,.47,0l2.92-3.24a.37.37,0,0,0,0-.51c-1.1-1.11-5.93-5.33-13.74-3C22.39,31.8,20.9,44.32,26.39,49.81s12.56,3.84,17,.88c4.69-3.1,4-9.37,3.83-10.79A.34.34,0,0,0,46.91,39.61Z" fill="#fff"/><path d="M57.26,40.33H55.32V38.47A.36.36,0,0,0,55,38.1h-3.1a.37.37,0,0,0-.37.37v1.86H49.57a.32.32,0,0,0-.32.33v3.19a.32.32,0,0,0,.32.32h1.91v1.67a.57.57,0,0,0,.57.57h2.71a.56.56,0,0,0,.56-.57V44.17h1.94a.3.3,0,0,0,.3-.29V40.63A.31.31,0,0,0,57.26,40.33Z" fill="#fff"/></svg>