<svg id="Layer_1" data-name="Layer 1" xmlns="http://www.w3.org/2000/svg" xmlns:xlink="http://www.w3.org/1999/xlink" viewBox="0 0 80 80"><defs><linearGradient id="linear-gradient" x1="44.44" y1="36.44" x2="42.99" y2="17.66" gradientUnits="userSpaceOnUse"><stop offset="0" stop-color="#006cfd"/><stop offset="1" stop-color="#00c9fb"/></linearGradient><linearGradient id="linear-gradient-2" x1="37.37" y1="46.31" x2="42.42" y2="29.35" xlink:href="#linear-gradient"/><linearGradient id="linear-gradient-3" x1="29.62" y1="59.74" x2="37.15" y2="34.43" gradientUnits="userSpaceOnUse"><stop offset="0.21" stop-color="#006cfd"/><stop offset="1" stop-color="#00c9fb"/></linearGradient><linearGradient id="linear-gradient-4" x1="27.84" y1="58.21" x2="32.17" y2="43.05" xlink:href="#linear-gradient"/></defs><title>Social Media Icons Free Vector Pack - Scene 5</title><path d="M51.43,50.14c-10.83,3.39-15.56,2.71-15.56,2.71a60.89,60.89,0,0,1-5.41,6.77c-1.69,1.69-2-6.77-2-6.77C24.37,50.82,10.84,38,23,26.47s31.8-5.41,36.52,3.38S62.26,46.76,51.43,50.14Z" fill="#314a87"/><path d="M61.23,33.84a15.38,15.38,0,0,0-11-4.9c-11.75-.49-17.55-.29-23.78-5.16,12.13-7.69,28.78-1.93,33.07,6.07A21.35,21.35,0,0,1,61.23,33.84Z" fill="url(#linear-gradient)"/><path d="M51.43,50.14c-1.44.46-2.79.83-4,1.15h0C42.55,49.9,36.93,47,30.62,41.76,25,37.08,21,35.52,18.08,35.85c.23-3.07,1.64-6.27,4.94-9.38a22.3,22.3,0,0,1,3.45-2.69c6.23,4.87,12,4.67,23.78,5.16a15.38,15.38,0,0,1,11,4.9C63.45,41,60.6,47.28,51.43,50.14Z" fill="url(#linear-gradient-2)"/><path d="M51.41,50.16c-1.44.45-2.77.82-4,1.13h0a51.66,51.66,0,0,1-6.31,1.29h0a21.34,21.34,0,0,1-5.22.27,60.89,60.89,0,0,1-5.41,6.77c-1.69,1.69-2-6.77-2-6.77A22.89,22.89,0,0,1,21,45.67a15.9,15.9,0,0,1-2.95-9.82s0-.07,0-.11,0-.25,0-.38c.05-.38.11-.76.19-1.13,0-.15.07-.29.1-.44a11.3,11.3,0,0,1,.46-1.43l.17-.42a13.52,13.52,0,0,1,1.39-2.49A61.11,61.11,0,0,1,32,37.32,94.74,94.74,0,0,0,51.41,50.16Z" fill="url(#linear-gradient-3)"/><path d="M38.41,52.86a13.71,13.71,0,0,1-2.54,0,60.89,60.89,0,0,1-5.41,6.77c-1.69,1.69-2-6.77-2-6.77A21.91,21.91,0,0,1,22,47C26.54,45.7,32.2,46.49,38.41,52.86Z" fill="url(#linear-gradient-4)"/><path d="M51.31,31.38c-1.59,2.64-8.18,11.19-10,13.5a.58.58,0,0,1-.91,0l-5-6.16L25,42.4s-.62.6.61-1.23c0,0,7.35-8,10.41-10.41,2.13-1.7,2.45,0,3.67,1.23a24.91,24.91,0,0,1,2.45,3.06l8.57-5.51S53.15,28.31,51.31,31.38Z" fill="#fff"/></svg>