<svg id="Layer_1" data-name="Layer 1" xmlns="http://www.w3.org/2000/svg" xmlns:xlink="http://www.w3.org/1999/xlink" viewBox="0 0 80 80"><defs><linearGradient id="linear-gradient" x1="19.71" y1="40" x2="60.29" y2="40" gradientUnits="userSpaceOnUse"><stop offset="0" stop-color="#2495c9"/><stop offset="1" stop-color="#36c0f4"/></linearGradient><linearGradient id="linear-gradient-2" x1="33.5" y1="34.41" x2="35.06" y2="17.51" xlink:href="#linear-gradient"/><linearGradient id="linear-gradient-3" x1="39.86" y1="50.08" x2="39.2" y2="26.52" gradientUnits="userSpaceOnUse"><stop offset="0" stop-color="#2495c9"/><stop offset="0.17" stop-color="#279cd0"/><stop offset="1" stop-color="#36c0f4"/></linearGradient><linearGradient id="linear-gradient-4" x1="46.81" y1="73.64" x2="43.7" y2="48.75" xlink:href="#linear-gradient"/><linearGradient id="linear-gradient-5" x1="39.01" y1="38.58" x2="35.89" y2="23.69" xlink:href="#linear-gradient"/><linearGradient id="linear-gradient-6" x1="38.39" y1="67.41" x2="44.16" y2="35.85" gradientUnits="userSpaceOnUse"><stop offset="0.37" stop-color="#2495c9"/><stop offset="0.87" stop-color="#36c0f4"/></linearGradient></defs><title>Social Media Icons Free Vector Pack - Scene 8</title><path d="M59.49,56.9c-2.2,4.67-10.32,8.85-17.66,3.57,0,0-11.53,2-18.53-8s-1.6-18.16-1.6-18.16-3.78-3-.61-10.56,14.48-9.08,17.31-2.7c0,0,10.55-2.08,17.05,6.26s3.2,18.9,3.2,18.9S61.69,52.24,59.49,56.9Z" fill="url(#linear-gradient)"/><path d="M48.28,22.06a32.19,32.19,0,0,0-5.46,1C29.57,26.65,24.1,26.71,20.75,24.6c.11-.26.22-.55.34-.83,3.16-7.57,14.48-9.08,17.31-2.7A19.82,19.82,0,0,1,48.28,22.06Z" fill="url(#linear-gradient-2)"/><path d="M59.09,44.35a52.85,52.85,0,0,1-12.61-.75A29.43,29.43,0,0,0,22,50.49a17.22,17.22,0,0,1-2.32-9A42.08,42.08,0,0,0,40,32.41c6-5.11,12.35-4.48,17-2.64C60.13,35.37,59.62,41.38,59.09,44.35Z" fill="url(#linear-gradient-3)"/><path d="M60.06,55.21a7.48,7.48,0,0,1-.57,1.69c-2.2,4.67-10.32,8.85-17.66,3.57A20.56,20.56,0,0,1,29.31,58C40.62,52.69,52.15,53.49,60.06,55.21Z" fill="url(#linear-gradient-4)"/><path d="M57.05,29.77c-4.7-1.84-11-2.47-17,2.64a42.08,42.08,0,0,1-20.28,9.06,14.85,14.85,0,0,1,2-7.14s-3.49-2.75-.95-9.73c3.35,2.11,8.82,2,22.07-1.52a32.19,32.19,0,0,1,5.46-1,16.17,16.17,0,0,1,7.17,5.27A17.92,17.92,0,0,1,57.05,29.77Z" fill="url(#linear-gradient-5)"/><path d="M60.06,55.21C52.15,53.49,40.62,52.69,29.31,58a18.64,18.64,0,0,1-6-5.53,20.5,20.5,0,0,1-1.26-2A29.43,29.43,0,0,1,46.48,43.6a52.85,52.85,0,0,0,12.61.75,17.81,17.81,0,0,1-.44,1.88S61,50.91,60.06,55.21Z" fill="url(#linear-gradient-6)"/><path d="M48.64,52.46c-3,3-9,3.54-14.87,1.48s-6.16-8.33-3-8.78,2.28,1.25,4.9,4.45,9.7,3,10.39,0,1.36-5-6.61-7.53-10.39-5-9.14-10,9.81-5.59,14.15-4.33,5,6.5,3.19,7.29-3.08-.11-3.76-2.5c-.91-1.93-2.63-2.63-6.28-2.29s-5.48,3.77-2,6.51,6,2.73,10.61,4.43S51.68,49.49,48.64,52.46Z" fill="#fff"/></svg>