<svg id="Layer_1" data-name="Layer 1" xmlns="http://www.w3.org/2000/svg" xmlns:xlink="http://www.w3.org/1999/xlink" viewBox="0 0 80 80"><defs><linearGradient id="linear-gradient" x1="17.65" y1="40" x2="62.35" y2="40" gradientUnits="userSpaceOnUse"><stop offset="0" stop-color="#956a26"/><stop offset="1" stop-color="#f7f400"/></linearGradient><linearGradient id="linear-gradient-2" x1="43.28" y1="49.5" x2="34.07" y2="20.63" xlink:href="#linear-gradient"/><linearGradient id="linear-gradient-3" x1="45.11" y1="72.9" x2="39.16" y2="35" xlink:href="#linear-gradient"/><linearGradient id="linear-gradient-4" x1="41.33" y1="69.68" x2="40.6" y2="54.16" xlink:href="#linear-gradient"/><linearGradient id="linear-gradient-5" x1="42.23" y1="57.31" x2="37.72" y2="30.06" xlink:href="#linear-gradient"/><linearGradient id="linear-gradient-6" x1="42.27" y1="67.06" x2="42.81" y2="52.08" xlink:href="#linear-gradient"/></defs><title>Social Media Icons Free Vector Pack - Scene 9</title><circle cx="40" cy="40" r="22.35" fill="url(#linear-gradient)"/><path d="M48.05,19.14c-9.28,7.63-19.13,10-26.35,8a22.4,22.4,0,0,1,26.35-8Z" fill="url(#linear-gradient-2)"/><path d="M62.3,40a22.32,22.32,0,0,1-.6,5.14c-3.78,3-10.69,6.61-21.76,5.52-9.62-1-14,1.94-16,4.93A22.29,22.29,0,0,1,17.7,42.3c9,.9,22.07-4.81,29.47-9.75,5.44-3.61,9.62-3.9,12.33-3.39A22.3,22.3,0,0,1,62.3,40Z" fill="url(#linear-gradient-3)"/><path d="M49.92,60a22.37,22.37,0,0,1-18,.79C39.58,55.8,46.17,57.91,49.92,60Z" fill="url(#linear-gradient-4)"/><path d="M59.56,29.16c-2.72-.51-6.9-.22-12.33,3.39C39.82,37.49,26.76,43.2,17.76,42.3a22,22,0,0,1-.11-2.3A22.27,22.27,0,0,1,21.7,27.16c7.22,2,17.07-.39,26.35-8A22.5,22.5,0,0,1,59.56,29.16Z" fill="url(#linear-gradient-5)"/><path d="M61.76,45.14A22.36,22.36,0,0,1,49.92,60c-3.75-2.12-10.34-4.23-18,.79A22.33,22.33,0,0,1,24,55.59c2-3,6.39-5.89,16-4.93C51.07,51.75,58,48.18,61.76,45.14Z" fill="url(#linear-gradient-6)"/><path d="M50.77,51c-.58.75-1.22.69-3,.52s-1.85-.64-3.36.34a7.66,7.66,0,0,1-8.8,0c-1.51-1-1.57-.52-3.36-.34s-2.43.23-3-.52-1.73-.12-1.44-1.22.75-.81,2.89-4.39-.06-3.88-1.1-5.14-1.39-1.86-1-2.56,2-.16,2.89.73,1.8,1.35,1.8-.45-.45-4,.44-7.17,4-4,6.28-4,5.38.89,6.28,4,.44,5.38.44,7.17.9,1.35,1.8.45S51,37,51.41,37.68s.05,1.29-1,2.56-3.24,1.55-1.1,5.14,2.61,3.3,2.89,4.39S51.35,50.24,50.77,51Z" fill="#fff"/></svg>