<svg id="Layer_1" data-name="Layer 1" xmlns="http://www.w3.org/2000/svg" xmlns:xlink="http://www.w3.org/1999/xlink" viewBox="0 0 80 80"><defs><linearGradient id="linear-gradient" x1="39.39" y1="30.88" x2="40.65" y2="69.32" gradientUnits="userSpaceOnUse"><stop offset="0.22" stop-color="#a12626"/><stop offset="0.44" stop-color="#5f1e26"/><stop offset="0.66" stop-color="#251726"/><stop offset="0.77" stop-color="#0f1426"/></linearGradient><linearGradient id="linear-gradient-2" x1="42.04" y1="16.15" x2="38.79" y2="40.52" gradientUnits="userSpaceOnUse"><stop offset="0.22" stop-color="#a12626"/><stop offset="0.5" stop-color="#5f1e26"/><stop offset="0.77" stop-color="#251726"/><stop offset="0.91" stop-color="#0f1426"/></linearGradient><linearGradient id="linear-gradient-3" x1="40.3" y1="40.85" x2="42.29" y2="73.7" xlink:href="#linear-gradient-2"/></defs><title>Social Media Icons Free Vector Pack - Scene 10</title><path d="M61.33,49a11.28,11.28,0,0,1-11.55,11.5H29.94a11.19,11.19,0,0,1-11.28-11V31.17A11.18,11.18,0,0,1,29.51,20.3l19.07-.78c6.31-.25,11.73,4.39,12,10.4Z" fill="url(#linear-gradient)"/><path d="M60.74,34.49c-3.49-2.1-8.07-2.66-13.88-.84-9,2.85-20.6.2-27.47-6.27A11.41,11.41,0,0,1,29.51,20.3l19.07-.78c6.31-.26,11.73,4.39,12,10.39Z" fill="url(#linear-gradient-2)"/><path d="M60.68,53.1a11.48,11.48,0,0,1-10.9,7.39H29.94a11.36,11.36,0,0,1-8.31-3.59c5.8-1.78,10.94-7.53,19.49-8.81C48.76,47,56,50.15,60.68,53.1Z" fill="url(#linear-gradient-3)"/><path d="M54.61,28.66v4.78a.51.51,0,0,1-.41.5,9.59,9.59,0,0,1-3.68-.1,8.59,8.59,0,0,1-4.08-2V46.6s.51,7.66-8.67,8.67S25,45.57,29.09,40a10.45,10.45,0,0,1,9.36-4.63.37.37,0,0,1,.33.38v4.95a.25.25,0,0,1-.3.25A4.53,4.53,0,0,0,33.68,43c-2,3.06,0,7.31,4.09,6.63a4.21,4.21,0,0,0,3.57-3.06l.5-21.5a.45.45,0,0,1,.45-.44h5a.27.27,0,0,1,.25.18,4,4,0,0,0,3,2.88,27.73,27.73,0,0,0,3.66.49A.45.45,0,0,1,54.61,28.66Z" fill="#fff"/></svg>