<svg id="Layer_1" data-name="Layer 1" xmlns="http://www.w3.org/2000/svg" xmlns:xlink="http://www.w3.org/1999/xlink" viewBox="0 0 80 80"><defs><linearGradient id="linear-gradient" x1="40.05" y1="51.39" x2="39.69" y2="37.49" gradientUnits="userSpaceOnUse"><stop offset="0" stop-color="#2495c9"/><stop offset="1" stop-color="#36c0f4"/></linearGradient><linearGradient id="linear-gradient-2" x1="40.57" y1="22.14" x2="38.59" y2="56.44" xlink:href="#linear-gradient"/><linearGradient id="linear-gradient-3" x1="43.55" y1="67.87" x2="40.12" y2="49.46" xlink:href="#linear-gradient"/></defs><title>Social Media Icons Free Vector Pack - Scene 12</title><path d="M61.33,49a11.28,11.28,0,0,1-11.55,11.5H29.94a11.19,11.19,0,0,1-11.28-11V31.17A11.18,11.18,0,0,1,29.51,20.3l19.07-.78c6.31-.25,11.73,4.39,12,10.4Z" fill="url(#linear-gradient)"/><path d="M60.74,34.49c-3.49-2.1-8.07-2.66-13.88-.84-9,2.85-20.6.2-27.47-6.27A11.41,11.41,0,0,1,29.51,20.3l19.07-.78c6.31-.26,11.73,4.39,12,10.39Z" fill="url(#linear-gradient-2)"/><path d="M60.68,53.1a11.48,11.48,0,0,1-10.9,7.39H29.94a11.36,11.36,0,0,1-8.31-3.59c5.8-1.78,10.94-7.53,19.49-8.81C48.76,47,56,50.15,60.68,53.1Z" fill="url(#linear-gradient-3)"/><path d="M30,29.43c-3.24,3-6.22,6.23-5.7,6.86s2.22-1.48,3.7,0S34.2,47.9,35.78,51s4.12,4.64,7.39,1.58S52,40.2,53.51,35.66s-1.37-7.92-3.8-7.92-4.43.53-6,3-1.9,4.64-.42,4.11,3.69-.31,2.53,2.43S43,43.15,42.22,43.36s-1.9-2-3.8-6.54-3.16-7.49-4.53-8.23A3.4,3.4,0,0,0,30,29.43Z" fill="#fff"/></svg>