<svg id="Layer_1" data-name="Layer 1" xmlns="http://www.w3.org/2000/svg" xmlns:xlink="http://www.w3.org/1999/xlink" viewBox="0 0 80 80"><defs><linearGradient id="linear-gradient" x1="61.83" y1="51.76" x2="54.25" y2="47.07" gradientUnits="userSpaceOnUse"><stop offset="0" stop-color="#9c1928"/><stop offset="1" stop-color="#e22840"/></linearGradient><linearGradient id="linear-gradient-2" x1="48.91" y1="50.14" x2="28.38" y2="23.49" xlink:href="#linear-gradient"/><linearGradient id="linear-gradient-3" x1="28.64" y1="33.39" x2="14.02" y2="23.47" xlink:href="#linear-gradient"/><linearGradient id="linear-gradient-4" x1="46.98" y1="53.29" x2="39.58" y2="40.29" xlink:href="#linear-gradient"/></defs><title>Social Media Icons Free Vector Pack - Scene 14</title><path d="M63.24,47.51c0,4-2.41,8.58-6.44,8.58H24a7.28,7.28,0,0,1-7.28-7.29V31.91A7.29,7.29,0,0,1,24,24.62l30.62-.71c4,0,7.86,4,7.86,8Z" fill="#314a87"/><path d="M63.24,47.51c0,4-2.41,8.58-6.44,8.58H49.63a21.16,21.16,0,0,1,4.73-11.66,9.84,9.84,0,0,1,8.56-3.86Z" fill="url(#linear-gradient)"/><path d="M59.22,25.61a12.82,12.82,0,0,0-9.61,5.75c-2.8,4-5,8.58-8.2,12.36-3.7,4.38-8.55,7.54-14.48,7.26a16,16,0,0,1-10.17-4.66V36.85c2.94,0,5.42-2.56,7.28-5.49,1.76-2.77,3.71-5.38,8.37-6.93l22.25-.52A7.49,7.49,0,0,1,59.22,25.61Z" fill="url(#linear-gradient-2)"/><path d="M32.41,24.43C27.75,26,25.8,28.59,24,31.36c-1.86,2.93-4.34,5.49-7.28,5.49V31.91A7.29,7.29,0,0,1,24,24.62Z" fill="url(#linear-gradient-3)"/><path d="M62.92,40.57a9.84,9.84,0,0,0-8.56,3.86,21.16,21.16,0,0,0-4.73,11.66H24a7.28,7.28,0,0,1-7.28-7.29V46.32A16,16,0,0,0,26.93,51c4.5.21,9.78-2,12.29-5.92a31.26,31.26,0,0,1,2.43-2.85c1.4-1.77,1.9-2.7,3.34-4.42s3.37-4.62,4.62-6.43a12.82,12.82,0,0,1,9.61-5.75,8.33,8.33,0,0,1,3.3,6.3Z" fill="url(#linear-gradient-4)"/><path d="M47.86,40.72c-2.14,2.14-7.86,5.71-10.72,6.43S35,44.29,35,39.28V33.57c0-2.87,2.15-.72,6.44,1.42S50,38.57,47.86,40.72Z" fill="#fff"/></svg>