<svg id="Layer_1" data-name="Layer 1" xmlns="http://www.w3.org/2000/svg" xmlns:xlink="http://www.w3.org/1999/xlink" viewBox="0 0 80 80"><defs><linearGradient id="linear-gradient" x1="18.66" y1="40" x2="61.34" y2="40" gradientUnits="userSpaceOnUse"><stop offset="0" stop-color="#ff5b92"/><stop offset="1" stop-color="#e42b4f"/></linearGradient><linearGradient id="linear-gradient-2" x1="41.97" y1="16.68" x2="38.72" y2="41.05" gradientUnits="userSpaceOnUse"><stop offset="0.2" stop-color="#ff5b92"/><stop offset="0.85" stop-color="#e42b4f"/></linearGradient><linearGradient id="linear-gradient-3" x1="37.85" y1="41.88" x2="43.26" y2="63.36" gradientUnits="userSpaceOnUse"><stop offset="0.16" stop-color="#ff80aa"/><stop offset="0.94" stop-color="#e42b4f"/></linearGradient><linearGradient id="linear-gradient-4" x1="40.11" y1="16.88" x2="39.93" y2="56.59" gradientUnits="userSpaceOnUse"><stop offset="0.16" stop-color="#ff80aa"/><stop offset="0.33" stop-color="#f96e96"/><stop offset="0.66" stop-color="#ea3f64"/><stop offset="0.78" stop-color="#e42b4f"/></linearGradient></defs><title>Social Media Icons Free Vector Pack - Scene 1</title><path d="M61.33,49a11.28,11.28,0,0,1-11.55,11.5H29.94a11.19,11.19,0,0,1-11.28-11V31.17A11.18,11.18,0,0,1,29.51,20.3l19.07-.78c6.31-.25,11.73,4.39,12,10.4Z" fill="url(#linear-gradient)"/><path d="M60.74,34.49c-3.49-2.1-8.07-2.66-13.88-.84-9,2.85-20.6.2-27.47-6.27A11.41,11.41,0,0,1,29.51,20.3l19.07-.78c6.31-.26,11.73,4.39,12,10.39Z" fill="url(#linear-gradient-2)"/><path d="M60.68,53.1a11.48,11.48,0,0,1-10.9,7.39H29.94a11.36,11.36,0,0,1-8.31-3.59c5.8-1.78,10.94-7.53,19.49-8.81C48.76,47,56,50.15,60.68,53.1Z" fill="url(#linear-gradient-3)"/><path d="M61.33,49a10.65,10.65,0,0,1-.65,4.11c-4.73-3-11.92-6.15-19.56-5-8.55,1.28-13.69,7-19.49,8.81a10.84,10.84,0,0,1-3-7.43V31.17a10.27,10.27,0,0,1,.73-3.79c6.87,6.47,18.45,9.12,27.47,6.27,5.81-1.82,10.39-1.26,13.88.84Z" fill="url(#linear-gradient-4)"/><path d="M56,37.44a16.06,16.06,0,0,0-8.48-10.78,15.5,15.5,0,0,0-3.27-1.23,16.38,16.38,0,0,0-4-.5,16.57,16.57,0,0,0-7.41,1.76A17,17,0,0,0,29.36,29a15.77,15.77,0,0,0-5.71,11.37c0,.19,0,.39,0,.58a15.39,15.39,0,0,0,.29,3,16.85,16.85,0,0,0,8.46,11.46A16.05,16.05,0,0,0,36,56.76a15.56,15.56,0,0,0,4,.54,15.94,15.94,0,0,0,7.83-2.09,17,17,0,0,0,2.9-2.08,16.47,16.47,0,0,0,5.63-12.22v-.15A15.15,15.15,0,0,0,56,37.44ZM46.61,29a14.07,14.07,0,0,1,7.32,8.42,20.89,20.89,0,0,0-6.42,1,30,30,0,0,0-4,1.7c-.77-1.19-1.56-2.36-2.36-3.49A24.49,24.49,0,0,0,46.61,29ZM40.2,27.46a13.78,13.78,0,0,1,3.68.5,12.28,12.28,0,0,1-3.64,5.95l-.65.61a68.34,68.34,0,0,0-4.86-5.93A13.87,13.87,0,0,1,40.2,27.46Zm-8.78,3.08a43.56,43.56,0,0,1,5.71,6C32.59,40,28.88,40.81,26.2,40.72A13.29,13.29,0,0,1,31.42,30.54ZM33,52.74a14.21,14.21,0,0,1-6.48-9.1A25.9,25.9,0,0,0,38.75,38.7c.7,1,1.4,2,2.08,3A19.27,19.27,0,0,0,33,52.74Zm7,2a13,13,0,0,1-3.58-.51,16.76,16.76,0,0,1,5.93-10.08,78.59,78.59,0,0,1,4.51,8.75A14.09,14.09,0,0,1,40,54.77Zm9.68-3.84c-1.37-2.76-3-5.64-4.72-8.46.61-.33,1.27-.65,2-.95a15.68,15.68,0,0,1,7.5-1c0,.13,0,.25,0,.38A13.59,13.59,0,0,1,49.68,50.93Z" fill="#fff"/></svg>