<svg id="Layer_1" data-name="Layer 1" xmlns="http://www.w3.org/2000/svg" xmlns:xlink="http://www.w3.org/1999/xlink" viewBox="0 0 80 80"><defs><linearGradient id="linear-gradient" x1="50.91" y1="-4.76" x2="31.09" y2="76.56" gradientUnits="userSpaceOnUse"><stop offset="0" stop-color="#9c1928"/><stop offset="1" stop-color="#e22840"/></linearGradient><linearGradient id="linear-gradient-2" x1="42.5" y1="41.28" x2="31.67" y2="15.53" xlink:href="#linear-gradient"/><linearGradient id="linear-gradient-3" x1="46.06" y1="63.34" x2="38.11" y2="33.01" gradientUnits="userSpaceOnUse"><stop offset="0.41" stop-color="#9c1928"/><stop offset="1" stop-color="#e22840"/></linearGradient><linearGradient id="linear-gradient-4" x1="33.7" y1="74.62" x2="42.85" y2="56.57" xlink:href="#linear-gradient"/><linearGradient id="linear-gradient-5" x1="44.21" y1="48.42" x2="34.1" y2="25.31" xlink:href="#linear-gradient-3"/><linearGradient id="linear-gradient-6" x1="38.72" y1="74.23" x2="44.25" y2="42.46" xlink:href="#linear-gradient"/></defs><title>Social Media Icons Free Vector Pack - Scene 6</title><circle cx="40" cy="40" r="22.35" fill="url(#linear-gradient)"/><path d="M48.05,19.14c-9.28,7.63-19.13,10-26.35,8a22.4,22.4,0,0,1,26.35-8Z" fill="url(#linear-gradient-2)"/><path d="M62.3,40a22.32,22.32,0,0,1-.6,5.14c-3.78,3-10.69,6.61-21.76,5.52-9.62-1-14,1.94-16,4.93A22.29,22.29,0,0,1,17.7,42.3c9,.9,22.07-4.81,29.47-9.75,5.44-3.61,9.62-3.9,12.33-3.39A22.3,22.3,0,0,1,62.3,40Z" fill="url(#linear-gradient-3)"/><path d="M49.92,60a22.37,22.37,0,0,1-18,.79C39.58,55.8,46.17,57.91,49.92,60Z" fill="url(#linear-gradient-4)"/><path d="M59.56,29.16c-2.72-.51-6.9-.22-12.33,3.39C39.82,37.49,26.76,43.2,17.76,42.3a22,22,0,0,1-.11-2.3A22.27,22.27,0,0,1,21.7,27.16c7.22,2,17.07-.39,26.35-8A22.5,22.5,0,0,1,59.56,29.16Z" fill="url(#linear-gradient-5)"/><path d="M61.76,45.14A22.36,22.36,0,0,1,49.92,60c-3.75-2.12-10.34-4.23-18,.79A22.33,22.33,0,0,1,24,55.59c2-3,6.39-5.89,16-4.93C51.07,51.75,58,48.18,61.76,45.14Z" fill="url(#linear-gradient-6)"/><path d="M36.35,37.77c-.92,5.43-2.56,15.63-2.89,17s.41.83,1.71-1.76l4.6-9.2s1.59,3,6.77,1.93,8.52-10.11,3.59-17.3-14.87-5.51-18.46-.75S29.08,37.4,30.84,39s3.42.94,2.75-1.48-.67-7.6,4.76-9.44,9.53.59,10.86,5.1-1.58,9.6-4.76,10.19-5-1.3-3.09-4.37,4.09-5.24,2.17-7.33-5.93.42-6.6,2.59A11.09,11.09,0,0,0,36.35,37.77Z" fill="#fff"/></svg>