<svg id="Layer_1" data-name="Layer 1" xmlns="http://www.w3.org/2000/svg" xmlns:xlink="http://www.w3.org/1999/xlink" viewBox="0 0 80 80"><defs><linearGradient id="linear-gradient" x1="38.23" y1="32.88" x2="42.32" y2="49.48" gradientUnits="userSpaceOnUse"><stop offset="0" stop-color="#f05c32"/><stop offset="0.27" stop-color="#da4e26"/><stop offset="0.84" stop-color="#a12907"/><stop offset="0.95" stop-color="#962201"/></linearGradient><linearGradient id="linear-gradient-2" x1="36.49" y1="19.83" x2="41.55" y2="42.21" gradientUnits="userSpaceOnUse"><stop offset="0.1" stop-color="#f05c32"/><stop offset="0.29" stop-color="#da4e26"/><stop offset="0.7" stop-color="#a12907"/><stop offset="0.77" stop-color="#962201"/></linearGradient><linearGradient id="linear-gradient-3" x1="38.38" y1="37.25" x2="42.71" y2="59.15" gradientUnits="userSpaceOnUse"><stop offset="0.24" stop-color="#f05c32"/><stop offset="0.45" stop-color="#da4e26"/><stop offset="0.88" stop-color="#a12907"/><stop offset="0.96" stop-color="#962201"/></linearGradient><linearGradient id="linear-gradient-4" x1="29.03" y1="15.12" x2="37.21" y2="29.56" gradientUnits="userSpaceOnUse"><stop offset="0.3" stop-color="#f05c32"/><stop offset="0.43" stop-color="#da4e26"/><stop offset="0.72" stop-color="#a12907"/><stop offset="0.77" stop-color="#962201"/></linearGradient><linearGradient id="linear-gradient-5" x1="33.26" y1="46.52" x2="45.53" y2="46.52" gradientUnits="userSpaceOnUse"><stop offset="0.26" stop-color="#db3101"/><stop offset="0.51" stop-color="#c52c01"/><stop offset="0.96" stop-color="#962201"/></linearGradient></defs><title>Social Media Icons Free Vector Pack - Scene 7</title><circle cx="40" cy="40" r="21.96" fill="#314a87"/><path d="M62,40A21.78,21.78,0,0,1,60,49c-7.24-6.28-11.49-6.37-18.84-4.84-7,1.46-15.79,6.56-19.08,8.58A21.8,21.8,0,0,1,18,40a22.23,22.23,0,0,1,.49-4.65c7.06,2.38,18.36.09,27.89-1.87a21.51,21.51,0,0,1,15.15,2.39A21.51,21.51,0,0,1,62,40Z" fill="url(#linear-gradient)"/><path d="M61.57,35.87a21.51,21.51,0,0,0-15.15-2.39c-9.53,2-20.83,4.25-27.89,1.87a21.63,21.63,0,0,1,2.27-6c3.93,1,7.47-.7,15.29-4.43,5.48-2.61,8.48-4.91,11.68-5.45A22,22,0,0,1,61.57,35.87Z" fill="url(#linear-gradient-2)"/><path d="M60,49a22,22,0,0,1-37.92,3.74c3.29-2,12-7.12,19.08-8.58C48.54,42.63,52.79,42.72,60,49Z" fill="url(#linear-gradient-3)"/><path d="M47.77,19.45c-3.2.54-6.2,2.84-11.68,5.45-7.82,3.73-11.36,5.45-15.29,4.43a22,22,0,0,1,27-9.88Z" fill="url(#linear-gradient-4)"/><path d="M52.9,35.32a3.64,3.64,0,0,0-3.67,1.54,17.48,17.48,0,0,0-9.41-3.36c.2-2.18.92-4.33,4.67-4.58,0,0,.09,1.19,1.92,1.56s3.75-1.65,1.64-3.48-3.68.82-3.68.82a6.29,6.29,0,0,0-4.59,1.83,6,6,0,0,0-1.71,4A19.25,19.25,0,0,0,30.94,36c-.21-.56-1.11-2.35-4-2.12-3.25.27-5.32,5.25-1.27,7.22A4.69,4.69,0,0,0,25.28,43c0,5.26,6.21,9.06,14.5,9.06s14.49-3.25,14.49-8.51a3.5,3.5,0,0,0-.15-1C58.23,40.6,56.16,35.58,52.9,35.32Zm-18.59,6A1.37,1.37,0,1,1,35.69,40,1.37,1.37,0,0,1,34.31,41.37Zm10.63.45a1.37,1.37,0,1,1,1.38-1.37A1.37,1.37,0,0,1,44.94,41.82Z" fill="#fff"/><path d="M39.39,47.85a9.85,9.85,0,0,1-5.92-1.63.59.59,0,0,1,.74-.91,8.75,8.75,0,0,0,5.18,1.37,8.8,8.8,0,0,0,5.19-1.37.58.58,0,1,1,.73.91A9.83,9.83,0,0,1,39.39,47.85Z" fill="url(#linear-gradient-5)"/></svg>